<?xml version="1.0" encoding="UTF-8"?>
<svg width="97px" height="97px" viewBox="0 0 97 97" version="1.1" xmlns="http://www.w3.org/2000/svg" xmlns:xlink="http://www.w3.org/1999/xlink">
    <!-- Generator: Sketch 45.1 (43504) - http://www.bohemiancoding.com/sketch -->
    <title>Sad</title>
    <desc>Created with Sketch.</desc>
    <defs></defs>
    <g id="Wireframe" stroke="none" stroke-width="1" fill="none" fill-rule="evenodd">
        <g id="dashboard" transform="translate(-132.000000, -199.000000)">
            <g id="Sad" transform="translate(132.000000, 199.000000)">
                <g id="sad">
                    <circle id="Oval" fill="#FCD063" fill-rule="nonzero" cx="48.4349908" cy="48.4349908" r="48.4349908"></circle>
                    <path d="M79.5120918,11.303516 C86.5593829,19.7160684 90.8156078,30.5473433 90.8156078,42.380617 C90.8156078,69.1288406 69.1288406,90.8156078 42.380617,90.8156078 C30.5473433,90.8156078 19.7160684,86.5593829 11.303516,79.5120918 C20.1883096,90.1193548 33.5170136,96.8699816 48.4349908,96.8699816 C75.1832145,96.8699816 96.8699816,75.1832145 96.8699816,48.4349908 C96.8699816,33.5170136 90.1193548,20.1883096 79.5120918,11.303516 Z" id="Shape" fill="#F7B84E" fill-rule="nonzero"></path>
                    <g id="Group" transform="translate(24.217495, 36.326243)" fill-rule="nonzero" fill="#C98E3F">
                        <path d="M37.4190576,33.2990562 C36.5472277,33.2990562 35.6663164,33.0871531 34.8641118,32.6421566 C29.1911635,29.5029638 19.2377729,29.5029638 13.5648246,32.6421566 C11.2248091,33.9408198 8.17643188,33.2506212 6.76273559,31.1013185 C5.3490393,28.9520158 6.10280884,26.1579222 8.44282433,24.859259 C17.2852373,19.9642978 31.1406719,19.9642978 39.9830849,24.859259 C42.3231004,26.1579222 43.0768699,28.9520158 41.6631737,31.1013185 C40.7368545,32.5150148 39.0991463,33.2990562 37.4190576,33.2990562 Z" id="Shape"></path>
                        <path d="M34.818704,0 C35.6814523,0 36.5563093,0.248229328 37.3312692,0.762851105 L46.4128299,6.81722496 C48.4985617,8.20670375 49.0616185,11.028042 47.6721397,13.1137738 C46.2826609,15.1995056 43.4643499,15.7655895 41.3755909,14.3730835 L32.2940301,8.31870967 C30.2082983,6.92923087 29.6452416,4.10789266 31.0347204,2.02216087 C31.9095774,0.70836174 33.3505184,0 34.818704,0 Z" id="Shape"></path>
                        <path d="M13.619314,0 C15.0874996,0 16.5254134,0.70836174 17.4032976,2.02216087 C18.7927764,4.10789266 18.2297197,6.92923087 16.1439879,8.31870967 L7.0624271,14.3730835 C4.9766953,15.7655895 2.15535709,15.1995056 0.765878292,13.1137738 C-0.623600507,11.028042 -0.0605437385,8.20670375 2.02518805,6.81722496 L11.1067488,0.762851105 C11.8786815,0.245202141 12.7535385,0 13.619314,0 Z" id="Shape"></path>
                    </g>
                    <g id="Group" transform="translate(24.217495, 36.137044)" fill-rule="nonzero" fill="#AB7934">
                        <path d="M8.44585152,28.0786723 C17.2882645,23.1837111 31.1436991,23.1837111 39.9861121,28.0786723 C41.0153556,28.6508107 41.717663,29.5165861 42.0839526,30.4852859 C42.8710212,28.4873426 42.041572,26.1927349 39.9861121,25.0514854 C31.1436991,20.1565241 17.2882645,20.1565241 8.44585152,25.0514854 C6.38736441,26.1927349 5.56094238,28.4873426 6.34801098,30.4852859 C6.7143006,29.5165861 7.41660797,28.6508107 8.44585152,28.0786723 Z" id="Shape"></path>
                        <path d="M17.4002704,6.74911325 C16.0107916,4.66338146 13.1924806,4.0972975 11.1037216,5.48980349 L2.02216087,11.5441773 C1.42277785,11.943766 0.965672629,12.4674694 0.62965488,13.0486892 C-0.563056768,10.9902021 0.0151359346,8.34141357 2.02216087,7.00339695 L11.1037216,0.949023101 C13.1924806,-0.443482885 16.0107916,0.12260107 17.4002704,2.20833286 C18.3931878,3.69770883 18.3750246,5.55034723 17.5334667,7.00036976 C17.4850317,6.91863572 17.4547598,6.8308473 17.4002704,6.74911325 Z" id="Shape"></path>
                        <path d="M31.0347204,6.74911325 C32.4241992,4.66338146 35.2425102,4.0972975 37.3312692,5.48980349 L46.4128299,11.5441773 C47.0091858,11.943766 47.4693182,12.4674694 47.8053359,13.0486892 C48.9980476,10.9902021 48.4168277,8.34141357 46.4128299,7.00339695 L37.3312692,0.949023101 C35.2425102,-0.443482885 32.4241992,0.12260107 31.0347204,2.20833286 C30.041803,3.69770883 30.0599662,5.55034723 30.9015241,7.00036976 C30.9499591,6.91863572 30.980231,6.8308473 31.0347204,6.74911325 Z" id="Shape"></path>
                    </g>
                    <g id="Group" transform="translate(15.135935, 51.462178)" fill-rule="nonzero" fill="#F7B84E">
                        <circle id="Oval" cx="62.057332" cy="4.54078039" r="4.54078039"></circle>
                        <circle id="Oval" cx="4.54078039" cy="4.54078039" r="4.54078039"></circle>
                    </g>
                </g>
            </g>
        </g>
    </g>
</svg>